<?xml version="1.0" standalone="no"?><!DOCTYPE svg PUBLIC "-//W3C//DTD SVG 1.1//EN" "http://www.w3.org/Graphics/SVG/1.1/DTD/svg11.dtd"><svg t="1703721458473" class="icon" viewBox="0 0 1024 1024" version="1.1" xmlns="http://www.w3.org/2000/svg" p-id="1140" xmlns:xlink="http://www.w3.org/1999/xlink" width="200" height="200"><path d="M512 62C264.5 62 62 264.5 62 512s202.5 450 450 450 450-202.5 450-450S759.5 62 512 62z m275 320L479.5 684.5c-2.5 2.5-2.5 5-5 7.5l-15 15c-7.5 7.5-17.5 12.5-20 7.5L289.5 562c-2.5-2.5 0-12.5 7.5-20l15-15c7.5-7.5 17.5-12.5 20-7.5l110 115L742 342c7.5-7.5 20-7.5 30 0l15 15c7.5 5 7.5 17.5 0 25z" fill="#707070" p-id="1141"></path></svg>